<svg width="22" height="22" viewBox="0 0 22 22" fill="none" xmlns="http://www.w3.org/2000/svg">
<path d="M11 0C8.82441 0 6.69767 0.645139 4.88873 1.85383C3.07979 3.06253 1.66989 4.78049 0.83733 6.79048C0.00476617 8.80047 -0.213071 11.0122 0.211367 13.146C0.635804 15.2798 1.68345 17.2398 3.22183 18.7782C4.76021 20.3166 6.72022 21.3642 8.85401 21.7886C10.9878 22.2131 13.1995 21.9952 15.2095 21.1627C17.2195 20.3301 18.9375 18.9202 20.1462 17.1113C21.3549 15.3023 22 13.1756 22 11C22 8.08262 20.8411 5.28473 18.7782 3.22183C16.7153 1.15893 13.9174 0 11 0ZM11 18C10.7348 18 10.4804 17.8946 10.2929 17.7071C10.1054 17.5196 10 17.2652 10 17C10 16.7348 10.1054 16.4804 10.2929 16.2929C10.4804 16.1054 10.7348 16 11 16C11.2652 16 11.5196 16.1054 11.7071 16.2929C11.8946 16.4804 12 16.7348 12 17C12 17.2652 11.8946 17.5196 11.7071 17.7071C11.5196 17.8946 11.2652 18 11 18ZM12.53 11.7C12.3642 11.7801 12.2256 11.9072 12.1314 12.0654C12.0371 12.2236 11.9915 12.406 12 12.59V13C12 13.2652 11.8946 13.5196 11.7071 13.7071C11.5196 13.8946 11.2652 14 11 14C10.7348 14 10.4804 13.8946 10.2929 13.7071C10.1054 13.5196 10 13.2652 10 13V12.58C9.98874 12.0015 10.1502 11.4329 10.4637 10.9466C10.7772 10.4603 11.2285 10.0785 11.76 9.85C12.0952 9.71228 12.3868 9.48606 12.6034 9.19551C12.82 8.90495 12.9536 8.561 12.9899 8.2004C13.0263 7.8398 12.9639 7.47611 12.8095 7.14821C12.6552 6.8203 12.4146 6.5405 12.1136 6.33871C11.8125 6.13692 11.4623 6.02073 11.1003 6.00254C10.7384 5.98436 10.3783 6.06488 10.0585 6.23549C9.73876 6.4061 9.47137 6.66039 9.28493 6.97118C9.09849 7.28197 9.00001 7.63758 9 8C9 8.26522 8.89465 8.51957 8.70711 8.70711C8.51957 8.89464 8.26522 9 8 9C7.73479 9 7.48043 8.89464 7.2929 8.70711C7.10536 8.51957 7 8.26522 7 8C6.99922 7.41328 7.12752 6.83357 7.37581 6.30197C7.62409 5.77037 7.98629 5.2999 8.4367 4.92391C8.88712 4.54793 9.41474 4.27563 9.98215 4.12634C10.5496 3.97704 11.1429 3.95439 11.72 4.06C12.5205 4.20554 13.2576 4.59173 13.8329 5.16706C14.4083 5.74239 14.7945 6.47949 14.94 7.28C15.1029 8.17982 14.9526 9.10829 14.514 9.91073C14.0755 10.7132 13.3753 11.3411 12.53 11.69V11.7Z" fill="url(#paint0_linear_5_8)"/>
<defs>
<linearGradient id="paint0_linear_5_8" x1="-2.27581e-07" y1="12" x2="22.5" y2="12" gradientUnits="userSpaceOnUse">
<stop stop-color="#7EB949"/>
<stop offset="1" stop-color="#B5D04A"/>
</linearGradient>
</defs>
</svg>
